<group>
trigger=attack
ampeg_attack=0.100000
ampeg_release=0.100000

<region>
sample=Harmonica-Hohner-Special20-F/Sustains/Accented/Hohner-Special20-F_Accented_F3.wav
pitch_keycenter=65
lokey=65
hikey=67
volume=-0.416640

<region>
sample=Harmonica-Hohner-Special20-F/Sustains/Accented/Hohner-Special20-F_Accented_A3.wav
pitch_keycenter=69
lokey=68
hikey=70
volume=0.015732

<region>
sample=Harmonica-Hohner-Special20-F/Sustains/Accented/Hohner-Special20-F_Accented_C4.wav
pitch_keycenter=72
lokey=71
hikey=74
volume=1.354124

<region>
sample=Harmonica-Hohner-Special20-F/Sustains/Accented/Hohner-Special20-F_Accented_F4.wav
pitch_keycenter=77
lokey=75
hikey=79
volume=-0.840669

<region>
sample=Harmonica-Hohner-Special20-F/Sustains/Accented/Hohner-Special20-F_Accented_A4.wav
pitch_keycenter=81
lokey=80
hikey=82
volume=1.674940

<region>
sample=Harmonica-Hohner-Special20-F/Sustains/Accented/Hohner-Special20-F_Accented_C5.wav
pitch_keycenter=84
lokey=83
hikey=86
tune=-1
volume=3.024193

<region>
sample=Harmonica-Hohner-Special20-F/Sustains/Accented/Hohner-Special20-F_Accented_F5.wav
pitch_keycenter=89
lokey=87
hikey=91
volume=-2.196459

<region>
sample=Harmonica-Hohner-Special20-F/Sustains/Accented/Hohner-Special20-F_Accented_A5.wav
pitch_keycenter=93
lokey=92
hikey=94
volume=7.704512

<region>
sample=Harmonica-Hohner-Special20-F/Sustains/Accented/Hohner-Special20-F_Accented_C6.wav
pitch_keycenter=96
lokey=95
hikey=98
tune=-2
volume=-1.236033

<region>
sample=Harmonica-Hohner-Special20-F/Sustains/Accented/Hohner-Special20-F_Accented_F6.wav
pitch_keycenter=101
lokey=99
hikey=102
volume=-4.191128

<group>
trigger=release
ampeg_attack=0.100000
ampeg_release=0.300000

<region>
sample=Harmonica-Hohner-Special20-F/Releases/Accented/Hohner-Special20-F_Accented_rel_F3.wav
pitch_keycenter=65
lokey=65
hikey=67
tune=-7
volume=-0.847567

<region>
sample=Harmonica-Hohner-Special20-F/Releases/Accented/Hohner-Special20-F_Accented_rel_A3.wav
pitch_keycenter=69
lokey=68
hikey=70
tune=-4
volume=3.631365

<region>
sample=Harmonica-Hohner-Special20-F/Releases/Accented/Hohner-Special20-F_Accented_rel_C4.wav
pitch_keycenter=72
lokey=71
hikey=74
tune=-3
volume=1.912501

<region>
sample=Harmonica-Hohner-Special20-F/Releases/Accented/Hohner-Special20-F_Accented_rel_F4.wav
pitch_keycenter=77
lokey=75
hikey=79
tune=-3
volume=1.766828

<region>
sample=Harmonica-Hohner-Special20-F/Releases/Accented/Hohner-Special20-F_Accented_rel_A4.wav
pitch_keycenter=81
lokey=80
hikey=82
volume=-1.080255

<region>
sample=Harmonica-Hohner-Special20-F/Releases/Accented/Hohner-Special20-F_Accented_rel_C5.wav
pitch_keycenter=84
lokey=83
hikey=86
tune=-3
volume=-0.348880

<region>
sample=Harmonica-Hohner-Special20-F/Releases/Accented/Hohner-Special20-F_Accented_rel_F5.wav
pitch_keycenter=89
lokey=87
hikey=91
tune=8
volume=-2.820446

<region>
sample=Harmonica-Hohner-Special20-F/Releases/Accented/Hohner-Special20-F_Accented_rel_A5.wav
pitch_keycenter=93
lokey=92
hikey=94
volume=0.366644

<region>
sample=Harmonica-Hohner-Special20-F/Releases/Accented/Hohner-Special20-F_Accented_rel_C6.wav
pitch_keycenter=96
lokey=95
hikey=98
tune=-1
volume=-0.061917

<region>
sample=Harmonica-Hohner-Special20-F/Releases/Accented/Hohner-Special20-F_Accented_rel_F6.wav
pitch_keycenter=101
lokey=99
hikey=102
volume=6.218606

